<mxfile host="65bd71144e">
    <diagram name="Graph-RAG流水线服务网格版" id="graph-rag-microservices">
        <mxGraphModel dx="770" dy="534" grid="1" gridSize="10" guides="1" tooltips="1" connect="1" arrows="1" fold="1" page="1" pageScale="1" pageWidth="1600" pageHeight="900" math="0" shadow="1">
            <root>
                <mxCell id="0"/>
                <mxCell id="1" parent="0"/>
                <mxCell id="data_input_service" value="" style="rounded=1;whiteSpace=wrap;html=1;fillColor=#FFFFFF;strokeColor=#2196F3;strokeWidth=3;shadow=1;arcSize=15;" parent="1" vertex="1">
                    <mxGeometry x="100" y="120" width="180" height="90" as="geometry"/>
                </mxCell>
                <mxCell id="data_input_header" value="Data Input Service" style="rounded=0;whiteSpace=wrap;html=1;fillColor=#2196F3;strokeColor=none;fontSize=12;fontStyle=1;fontColor=#FFFFFF;arcSize=15;" parent="1" vertex="1">
                    <mxGeometry x="100" y="120" width="180" height="30" as="geometry"/>
                </mxCell>
                <mxCell id="data_input_content" value="• PDF文档接收&#xa;• 文件格式验证&#xa;• 批量上传处理" style="text;html=1;strokeColor=none;fillColor=none;spacingLeft=8;spacingRight=8;whiteSpace=wrap;overflow=hidden;rotatable=0;fontSize=10;fontColor=#333333;align=left;" parent="1" vertex="1">
                    <mxGeometry x="100" y="150" width="180" height="60" as="geometry"/>
                </mxCell>
                <mxCell id="doc_parse_service" value="" style="rounded=1;whiteSpace=wrap;html=1;fillColor=#FFFFFF;strokeColor=#FF9800;strokeWidth=3;shadow=1;arcSize=15;" parent="1" vertex="1">
                    <mxGeometry x="320" y="120" width="180" height="90" as="geometry"/>
                </mxCell>
                <mxCell id="doc_parse_header" value="Document Parse Service" style="rounded=0;whiteSpace=wrap;html=1;fillColor=#FF9800;strokeColor=none;fontSize=12;fontStyle=1;fontColor=#FFFFFF;arcSize=15;" parent="1" vertex="1">
                    <mxGeometry x="320" y="120" width="180" height="30" as="geometry"/>
                </mxCell>
                <mxCell id="doc_parse_content" value="• MinerU智能解析&#xa;• OCR文字识别&#xa;• 图文关联配对" style="text;html=1;strokeColor=none;fillColor=none;spacingLeft=8;spacingRight=8;whiteSpace=wrap;overflow=hidden;rotatable=0;fontSize=10;fontColor=#333333;align=left;" parent="1" vertex="1">
                    <mxGeometry x="320" y="150" width="180" height="60" as="geometry"/>
                </mxCell>
                <mxCell id="knowledge_extract_service" value="" style="rounded=1;whiteSpace=wrap;html=1;fillColor=#FFFFFF;strokeColor=#4CAF50;strokeWidth=3;shadow=1;arcSize=15;" parent="1" vertex="1">
                    <mxGeometry x="540" y="120" width="180" height="90" as="geometry"/>
                </mxCell>
                <mxCell id="knowledge_extract_header" value="Knowledge Extract Service" style="rounded=0;whiteSpace=wrap;html=1;fillColor=#4CAF50;strokeColor=none;fontSize=12;fontStyle=1;fontColor=#FFFFFF;arcSize=15;" parent="1" vertex="1">
                    <mxGeometry x="540" y="120" width="180" height="30" as="geometry"/>
                </mxCell>
                <mxCell id="knowledge_extract_content" value="• 实体识别(NER)&#xa;• 关系抽取(RE)&#xa;• 三元组生成" style="text;html=1;strokeColor=none;fillColor=none;spacingLeft=8;spacingRight=8;whiteSpace=wrap;overflow=hidden;rotatable=0;fontSize=10;fontColor=#333333;align=left;" parent="1" vertex="1">
                    <mxGeometry x="540" y="150" width="180" height="60" as="geometry"/>
                </mxCell>
                <mxCell id="graph_build_service" value="" style="rounded=1;whiteSpace=wrap;html=1;fillColor=#FFFFFF;strokeColor=#9C27B0;strokeWidth=3;shadow=1;arcSize=15;" parent="1" vertex="1">
                    <mxGeometry x="100" y="240" width="180" height="90" as="geometry"/>
                </mxCell>
                <mxCell id="graph_build_header" value="Graph Build Service" style="rounded=0;whiteSpace=wrap;html=1;fillColor=#9C27B0;strokeColor=none;fontSize=12;fontStyle=1;fontColor=#FFFFFF;arcSize=15;" parent="1" vertex="1">
                    <mxGeometry x="100" y="240" width="180" height="30" as="geometry"/>
                </mxCell>
                <mxCell id="graph_build_content" value="• 实体对齐融合&#xa;• 关系验证补全&#xa;• 图结构优化" style="text;html=1;strokeColor=none;fillColor=none;spacingLeft=8;spacingRight=8;whiteSpace=wrap;overflow=hidden;rotatable=0;fontSize=10;fontColor=#333333;align=left;" parent="1" vertex="1">
                    <mxGeometry x="100" y="270" width="180" height="60" as="geometry"/>
                </mxCell>
                <mxCell id="vector_service" value="" style="rounded=1;whiteSpace=wrap;html=1;fillColor=#FFFFFF;strokeColor=#FF5722;strokeWidth=3;shadow=1;arcSize=15;" parent="1" vertex="1">
                    <mxGeometry x="320" y="240" width="180" height="90" as="geometry"/>
                </mxCell>
                <mxCell id="vector_header" value="Vector Service" style="rounded=0;whiteSpace=wrap;html=1;fillColor=#FF5722;strokeColor=none;fontSize=12;fontStyle=1;fontColor=#FFFFFF;arcSize=15;" parent="1" vertex="1">
                    <mxGeometry x="320" y="240" width="180" height="30" as="geometry"/>
                </mxCell>
                <mxCell id="vector_content" value="• SynCSE语义表示&#xa;• FAISS高效索引&#xa;• 混合检索支持" style="text;html=1;strokeColor=none;fillColor=none;spacingLeft=8;spacingRight=8;whiteSpace=wrap;overflow=hidden;rotatable=0;fontSize=10;fontColor=#333333;align=left;" parent="1" vertex="1">
                    <mxGeometry x="320" y="270" width="180" height="60" as="geometry"/>
                </mxCell>
                <mxCell id="rag_service" value="" style="rounded=1;whiteSpace=wrap;html=1;fillColor=#FFFFFF;strokeColor=#607D8B;strokeWidth=3;shadow=1;arcSize=15;" parent="1" vertex="1">
                    <mxGeometry x="540" y="240" width="180" height="90" as="geometry"/>
                </mxCell>
                <mxCell id="rag_header" value="RAG Retrieval Service" style="rounded=0;whiteSpace=wrap;html=1;fillColor=#607D8B;strokeColor=none;fontSize=12;fontStyle=1;fontColor=#FFFFFF;arcSize=15;" parent="1" vertex="1">
                    <mxGeometry x="540" y="240" width="180" height="30" as="geometry"/>
                </mxCell>
                <mxCell id="rag_content" value="• 混合检索算法&#xa;• 语义相似度匹配&#xa;• 上下文动态构建" style="text;html=1;strokeColor=none;fillColor=none;spacingLeft=8;spacingRight=8;whiteSpace=wrap;overflow=hidden;rotatable=0;fontSize=10;fontColor=#333333;align=left;" parent="1" vertex="1">
                    <mxGeometry x="540" y="270" width="180" height="60" as="geometry"/>
                </mxCell>
                <mxCell id="generation_service" value="" style="rounded=1;whiteSpace=wrap;html=1;fillColor=#FFFFFF;strokeColor=#795548;strokeWidth=3;shadow=1;arcSize=15;" parent="1" vertex="1">
                    <mxGeometry x="100" y="360" width="180" height="90" as="geometry"/>
                </mxCell>
                <mxCell id="generation_header" value="Generation Service" style="rounded=0;whiteSpace=wrap;html=1;fillColor=#795548;strokeColor=none;fontSize=12;fontStyle=1;fontColor=#FFFFFF;arcSize=15;" parent="1" vertex="1">
                    <mxGeometry x="100" y="360" width="180" height="30" as="geometry"/>
                </mxCell>
                <mxCell id="generation_content" value="• 检索知识融合&#xa;• 上下文增强生成&#xa;• 多轮对话支持" style="text;html=1;strokeColor=none;fillColor=none;spacingLeft=8;spacingRight=8;whiteSpace=wrap;overflow=hidden;rotatable=0;fontSize=10;fontColor=#333333;align=left;" parent="1" vertex="1">
                    <mxGeometry x="100" y="390" width="180" height="60" as="geometry"/>
                </mxCell>
                <mxCell id="output_service" value="" style="rounded=1;whiteSpace=wrap;html=1;fillColor=#FFFFFF;strokeColor=#009688;strokeWidth=3;shadow=1;arcSize=15;" parent="1" vertex="1">
                    <mxGeometry x="320" y="360" width="180" height="90" as="geometry"/>
                </mxCell>
                <mxCell id="output_header" value="Application Output Service" style="rounded=0;whiteSpace=wrap;html=1;fillColor=#009688;strokeColor=none;fontSize=12;fontStyle=1;fontColor=#FFFFFF;arcSize=15;" parent="1" vertex="1">
                    <mxGeometry x="320" y="360" width="180" height="30" as="geometry"/>
                </mxCell>
                <mxCell id="output_content" value="• 故障诊断报告&#xa;• 检修策略建议&#xa;• 智能辅助决策" style="text;html=1;strokeColor=none;fillColor=none;spacingLeft=8;spacingRight=8;whiteSpace=wrap;overflow=hidden;rotatable=0;fontSize=10;fontColor=#333333;align=left;" parent="1" vertex="1">
                    <mxGeometry x="320" y="390" width="180" height="60" as="geometry"/>
                </mxCell>
                <mxCell id="input_to_parse" style="edgeStyle=orthogonalEdgeStyle;rounded=0;orthogonalLoop=1;jettySize=auto;html=1;strokeColor=#2196F3;strokeWidth=3;endArrow=classic;" parent="1" source="data_input_service" target="doc_parse_service" edge="1">
                    <mxGeometry relative="1" as="geometry"/>
                </mxCell>
                <mxCell id="parse_to_extract" style="edgeStyle=orthogonalEdgeStyle;rounded=0;orthogonalLoop=1;jettySize=auto;html=1;strokeColor=#FF9800;strokeWidth=3;endArrow=classic;" parent="1" source="doc_parse_service" target="knowledge_extract_service" edge="1">
                    <mxGeometry relative="1" as="geometry"/>
                </mxCell>
                <mxCell id="extract_to_graph" style="edgeStyle=orthogonalEdgeStyle;rounded=0;orthogonalLoop=1;jettySize=auto;html=1;strokeColor=#4CAF50;strokeWidth=3;endArrow=classic;" parent="1" source="knowledge_extract_service" target="graph_build_service" edge="1">
                    <mxGeometry relative="1" as="geometry">
                        <Array as="points">
                            <mxPoint x="630" y="220"/>
                            <mxPoint x="190" y="220"/>
                        </Array>
                    </mxGeometry>
                </mxCell>
                <mxCell id="graph_to_vector" style="edgeStyle=orthogonalEdgeStyle;rounded=0;orthogonalLoop=1;jettySize=auto;html=1;strokeColor=#9C27B0;strokeWidth=3;endArrow=classic;" parent="1" source="graph_build_service" target="vector_service" edge="1">
                    <mxGeometry relative="1" as="geometry"/>
                </mxCell>
                <mxCell id="vector_to_rag" style="edgeStyle=orthogonalEdgeStyle;rounded=0;orthogonalLoop=1;jettySize=auto;html=1;strokeColor=#FF5722;strokeWidth=3;endArrow=classic;" parent="1" source="vector_service" target="rag_service" edge="1">
                    <mxGeometry relative="1" as="geometry"/>
                </mxCell>
                <mxCell id="rag_to_generation" style="edgeStyle=orthogonalEdgeStyle;rounded=0;orthogonalLoop=1;jettySize=auto;html=1;strokeColor=#607D8B;strokeWidth=3;endArrow=classic;" parent="1" source="rag_service" target="generation_service" edge="1">
                    <mxGeometry relative="1" as="geometry">
                        <Array as="points">
                            <mxPoint x="630" y="340"/>
                            <mxPoint x="190" y="340"/>
                        </Array>
                    </mxGeometry>
                </mxCell>
                <mxCell id="generation_to_output" style="edgeStyle=orthogonalEdgeStyle;rounded=0;orthogonalLoop=1;jettySize=auto;html=1;strokeColor=#795548;strokeWidth=3;endArrow=classic;" parent="1" source="generation_service" target="output_service" edge="1">
                    <mxGeometry relative="1" as="geometry"/>
                </mxCell>
            </root>
        </mxGraphModel>
    </diagram>
</mxfile>